<svg xmlns="http://www.w3.org/2000/svg" width="171" height="138" viewBox="0 0 171 138" fill="none">
  <path d="M60.5284 137.573C31.4044 137.573 0.623047 125.024 0.623047 94.2423C0.623047 62.0402 36.14 53.9897 61.949 53.9897C83.2592 53.9897 103.386 59.1989 110.489 65.8287C110.252 61.8035 109.779 57.7782 109.068 53.7529C106.937 44.045 80.4179 41.4404 71.1835 41.4404C57.2135 41.4404 40.4021 44.045 22.6436 50.438C22.4068 40.2565 16.9609 17.9992 11.9885 8.52799C30.4573 2.84527 52.4779 0.00390625 74.2616 0.00390625H76.8662C124.222 0.714251 169.684 16.1049 168.026 49.0173C166.606 77.9045 165.659 104.424 170.157 132.837H103.386C105.043 129.759 106.464 125.971 107.648 122.656C99.3603 132.127 80.4179 137.573 60.5284 137.573ZM60.5284 93.7687C60.5284 107.739 73.7881 113.185 86.3374 113.185C98.8867 113.185 112.146 107.739 112.146 93.7687C112.146 79.7987 98.8867 74.5896 86.3374 74.5896C73.7881 74.5896 60.5284 79.7987 60.5284 93.7687Z" fill="url(#paint0_linear_374_12)"/>
  <defs>
    <linearGradient id="paint0_linear_374_12" x1="85.3903" y1="0.00390625" x2="85.3903" y2="137.573" gradientUnits="userSpaceOnUse">
      <stop stop-color="white" stop-opacity="0.76"/>
      <stop offset="1" stop-color="white" stop-opacity="0"/>
    </linearGradient>
  </defs>
</svg>