<svg width="16" height="17" viewBox="0 0 16 17" fill="none" xmlns="http://www.w3.org/2000/svg">
<path d="M16 1.82363C16 0.943633 15.28 0.223633 14.4 0.223633H1.6C0.72 0.223633 0 0.943633 0 1.82363V11.4236C0 12.3036 0.72 13.0236 1.6 13.0236H12.8L16 16.2236V1.82363ZM11.2 7.42363H8.8V9.82363C8.8 10.2636 8.44 10.6236 8 10.6236C7.56 10.6236 7.2 10.2636 7.2 9.82363V7.42363H4.8C4.36 7.42363 4 7.06363 4 6.62363C4 6.18363 4.36 5.82363 4.8 5.82363H7.2V3.42363C7.2 2.98363 7.56 2.62363 8 2.62363C8.44 2.62363 8.8 2.98363 8.8 3.42363V5.82363H11.2C11.64 5.82363 12 6.18363 12 6.62363C12 7.06363 11.64 7.42363 11.2 7.42363Z" fill="#FF658C"/>
</svg>
