<svg width="17" height="18" viewBox="0 0 17 18" fill="none" xmlns="http://www.w3.org/2000/svg">
<path d="M12.815 6.10352e-05C12.3263 6.10352e-05 11.9264 0.399951 11.9264 0.888705V1.77735H4.81724V0.888705C4.81724 0.399951 4.41735 6.10352e-05 3.9286 6.10352e-05C3.43984 6.10352e-05 3.03995 0.399951 3.03995 0.888705V1.77735H2.15131C1.16492 1.77735 0.38291 2.57713 0.38291 3.55464L0.374023 15.9956C0.374023 16.9732 1.16492 17.7729 2.15131 17.7729H14.5923C15.5698 17.7729 16.3696 16.9732 16.3696 15.9956V3.55464C16.3696 2.57713 15.5698 1.77735 14.5923 1.77735H13.7037V0.888705C13.7037 0.399951 13.3038 6.10352e-05 12.815 6.10352e-05ZM14.5923 15.9956H2.15131V7.10921H14.5923V15.9956ZM7.48317 9.77514C7.48317 9.28639 7.88306 8.8865 8.37182 8.8865C8.86057 8.8865 9.26046 9.28639 9.26046 9.77514C9.26046 10.2639 8.86057 10.6638 8.37182 10.6638C7.88306 10.6638 7.48317 10.2639 7.48317 9.77514ZM3.9286 9.77514C3.9286 9.28639 4.32849 8.8865 4.81724 8.8865C5.30599 8.8865 5.70588 9.28639 5.70588 9.77514C5.70588 10.2639 5.30599 10.6638 4.81724 10.6638C4.32849 10.6638 3.9286 10.2639 3.9286 9.77514ZM11.0377 9.77514C11.0377 9.28639 11.4376 8.8865 11.9264 8.8865C12.4151 8.8865 12.815 9.28639 12.815 9.77514C12.815 10.2639 12.4151 10.6638 11.9264 10.6638C11.4376 10.6638 11.0377 10.2639 11.0377 9.77514ZM7.48317 13.3297C7.48317 12.841 7.88306 12.4411 8.37182 12.4411C8.86057 12.4411 9.26046 12.841 9.26046 13.3297C9.26046 13.8185 8.86057 14.2184 8.37182 14.2184C7.88306 14.2184 7.48317 13.8185 7.48317 13.3297ZM3.9286 13.3297C3.9286 12.841 4.32849 12.4411 4.81724 12.4411C5.30599 12.4411 5.70588 12.841 5.70588 13.3297C5.70588 13.8185 5.30599 14.2184 4.81724 14.2184C4.32849 14.2184 3.9286 13.8185 3.9286 13.3297ZM11.0377 13.3297C11.0377 12.841 11.4376 12.4411 11.9264 12.4411C12.4151 12.4411 12.815 12.841 12.815 13.3297C12.815 13.8185 12.4151 14.2184 11.9264 14.2184C11.4376 14.2184 11.0377 13.8185 11.0377 13.3297Z" fill="#2285E3"/>
</svg>
