<svg xmlns="http://www.w3.org/2000/svg" width="171" height="138" viewBox="0 0 171 138" fill="none">
  <path d="M95.6459 137.81C52.5519 137.81 7.80054 125.734 1.1707 75.7735C-3.09134 21.7877 35.7406 0.00390625 85.7011 0.00390625C119.797 0.00390625 161.471 14.921 161.471 44.5185C161.471 74.5896 129.032 85.955 99.9079 85.955C87.1218 85.955 66.7587 83.3504 57.9979 74.116L58.2347 78.1413C59.4186 96.6101 78.8345 101.346 93.9884 101.346C111.984 101.346 125.243 94.2423 134.004 84.2976C141.108 91.6377 159.103 104.424 170.705 108.449C148.921 133.785 119.561 137.81 95.6459 137.81ZM56.1036 50.6748C56.1036 63.2241 66.2852 69.854 78.8345 69.854C91.3838 69.854 101.565 63.2241 101.565 50.6748C101.565 38.1255 91.3838 31.2589 78.8345 31.2589C66.2852 31.2589 56.1036 38.1255 56.1036 50.6748Z" fill="url(#paint0_linear_374_13)"/>
  <defs>
    <linearGradient id="paint0_linear_374_13" x1="85.7779" y1="0.00390625" x2="85.7778" y2="137.81" gradientUnits="userSpaceOnUse">
      <stop stop-color="white" stop-opacity="0.76"/>
      <stop offset="1" stop-color="white" stop-opacity="0"/>
    </linearGradient>
  </defs>
</svg>