<svg xmlns="http://www.w3.org/2000/svg" width="171" height="138" viewBox="0 0 171 138" fill="none">
  <path d="M95.5413 137.81C52.4474 137.81 7.69605 125.734 1.06621 75.7735C-3.19583 21.7877 35.6361 0.00390625 85.5966 0.00390625C119.693 0.00390625 161.366 14.921 161.366 44.5185C161.366 74.5896 128.927 85.955 99.8034 85.955C87.0173 85.955 66.6542 83.3504 57.8933 74.116L58.1302 78.1413C59.3141 96.6101 78.73 101.346 93.8839 101.346C111.879 101.346 125.139 94.2423 133.9 84.2976C141.003 91.6377 158.998 104.424 170.601 108.449C148.817 133.785 119.456 137.81 95.5413 137.81ZM55.9991 50.6748C55.9991 63.2241 66.1806 69.854 78.73 69.854C91.2793 69.854 101.461 63.2241 101.461 50.6748C101.461 38.1255 91.2793 31.2589 78.73 31.2589C66.1806 31.2589 55.9991 38.1255 55.9991 50.6748Z" fill="url(#paint0_linear_374_9)"/>
  <defs>
    <linearGradient id="paint0_linear_374_9" x1="85.6734" y1="0.00390625" x2="85.6733" y2="137.81" gradientUnits="userSpaceOnUse">
      <stop stop-color="white" stop-opacity="0.76"/>
      <stop offset="1" stop-color="white" stop-opacity="0"/>
    </linearGradient>
  </defs>
</svg>