<svg width="17" height="17" viewBox="0 0 17 17" fill="none" xmlns="http://www.w3.org/2000/svg">
<path d="M8.02723 12.8821C5.52082 12.7638 3.52673 10.6977 3.52673 8.15855C3.52673 5.54839 5.64693 3.42715 8.2558 3.42715C10.7937 3.42715 12.8588 5.42222 12.977 7.92986L11.3218 7.43307C10.9987 6.0373 9.74545 5.00428 8.2558 5.00428C6.51393 5.00428 5.10309 6.41582 5.10309 8.15855C5.10309 9.64894 6.1356 10.9028 7.53067 11.2261L8.02723 12.8821ZM16.1376 8.15855C16.1376 8.39512 16.1297 8.63169 16.106 8.86826L14.5533 8.403C14.5612 8.32415 14.5612 8.2374 14.5612 8.15855C14.5612 4.67309 11.7395 1.85002 8.2558 1.85002C4.77205 1.85002 1.95038 4.67309 1.95038 8.15855C1.95038 11.644 4.77205 14.4671 8.2558 14.4671C8.33461 14.4671 8.42132 14.4671 8.50013 14.4592L8.96516 16.0127C8.7287 16.0363 8.49225 16.0442 8.2558 16.0442C3.90506 16.0442 0.374023 12.5114 0.374023 8.15855C0.374023 3.80566 3.90506 0.272888 8.2558 0.272888C12.6065 0.272888 16.1376 3.80566 16.1376 8.15855ZM13.1661 11.5178L14.9553 10.9185C15.3179 10.8002 15.31 10.2798 14.9474 10.1694L8.95728 8.37146C8.65777 8.28472 8.37402 8.56071 8.46861 8.86037L10.2656 14.8535C10.376 15.2241 10.8962 15.232 11.0144 14.8614L11.6134 13.0713L14.6952 16.1546C14.8528 16.3123 15.0972 16.3123 15.2548 16.1546L16.2558 15.1531C16.4134 14.9954 16.4134 14.751 16.2558 14.5932L13.1661 11.5178Z" fill="#2285E3"/>
</svg>
