<svg width="12" height="18" viewBox="0 0 12 18" fill="none" xmlns="http://www.w3.org/2000/svg">
<path d="M0.374023 2.47289V5.16739C0.374023 5.61789 0.566524 6.05139 0.914857 6.37439L4.04069 9.27289L0.90569 12.1799C0.566523 12.5029 0.374023 12.9364 0.374023 13.3869V16.0729C0.374023 17.0079 1.19902 17.7729 2.20736 17.7729H9.54069C10.549 17.7729 11.374 17.0079 11.374 16.0729V13.3869C11.374 12.9364 11.1815 12.5029 10.8424 12.1884L7.70736 9.27289L10.8332 6.38289C11.1815 6.05989 11.374 5.62639 11.374 5.17589V2.47289C11.374 1.53789 10.549 0.772888 9.54069 0.772888H2.20736C1.19902 0.772888 0.374023 1.53789 0.374023 2.47289Z" fill="#2285E3"/>
</svg>
