<svg width="900" height="308" viewBox="0 0 900 308" fill="none" xmlns="http://www.w3.org/2000/svg">
<g filter="url(#filter0_d_1727_945)">
<rect x="10" y="8" width="880" height="288" rx="12" fill="white"/>
</g>
<path opacity="0.9" d="M447.388 137.899V131.144H452.606V137.899C452.606 138.642 453.193 139.25 453.91 139.25H457.823C458.541 139.25 459.127 138.642 459.127 137.899V128.442H461.345C461.945 128.442 462.232 127.672 461.775 127.267L450.871 117.094C450.375 116.635 449.619 116.635 449.123 117.094L438.219 127.267C437.775 127.672 438.049 128.442 438.649 128.442H440.867V137.899C440.867 138.642 441.454 139.25 442.171 139.25H446.084C446.801 139.25 447.388 138.642 447.388 137.899Z" fill="#CAD0D7"/>
<path d="M363.275 155.293C363.982 155.293 364.614 155.499 365.17 155.912C365.726 156.32 366.161 156.902 366.474 157.657C366.787 158.409 366.946 159.284 366.949 160.282C366.946 161.287 366.787 162.169 366.474 162.928C366.161 163.683 365.726 164.265 365.17 164.674C364.614 165.079 363.982 165.282 363.275 165.282C362.564 165.282 361.931 165.079 361.375 164.674C360.819 164.265 360.384 163.683 360.071 162.928C359.761 162.169 359.607 161.287 359.607 160.282C359.607 159.284 359.761 158.409 360.071 157.657C360.384 156.902 360.819 156.32 361.375 155.912C361.931 155.499 362.564 155.293 363.275 155.293ZM361.281 160.282C361.281 160.993 361.364 161.606 361.529 162.122C361.695 162.637 361.929 163.031 362.231 163.304C362.533 163.576 362.881 163.713 363.275 163.713C363.677 163.713 364.027 163.578 364.325 163.309C364.627 163.037 364.861 162.643 365.027 162.127C365.192 161.611 365.275 160.996 365.275 160.282C365.275 159.575 365.192 158.965 365.027 158.453C364.861 157.937 364.627 157.543 364.325 157.271C364.027 156.998 363.677 156.862 363.275 156.862C362.881 156.862 362.533 156.998 362.231 157.271C361.929 157.543 361.695 157.937 361.529 158.453C361.364 158.965 361.281 159.575 361.281 160.282ZM368.806 154.271H370.546V159.696H372.723V161.155H370.546V168.381H368.806V154.271ZM378.678 156.724C378.678 157.313 378.811 157.884 379.076 158.436C379.345 158.989 379.737 159.483 380.253 159.917C380.772 160.348 381.396 160.676 382.126 160.901L381.236 162.243C380.448 161.993 379.765 161.615 379.186 161.11C378.608 160.606 378.155 160.011 377.827 159.326C377.499 160.07 377.037 160.718 376.44 161.271C375.844 161.82 375.137 162.234 374.319 162.514L373.418 161.171C374.155 160.924 374.787 160.571 375.313 160.11C375.84 159.65 376.238 159.127 376.507 158.541C376.776 157.956 376.912 157.35 376.916 156.724V156.547H373.877V155.149H381.65V156.547H378.678V156.724ZM375.44 163.442H385.07V168.381H383.33V164.84H375.44V163.442ZM383.33 154.271H385.07V162.785H383.33V154.271ZM403.828 162.232H390.938V160.812H403.828V162.232ZM392.436 165.785C392.436 165.239 392.631 164.775 393.021 164.392C393.415 164.006 393.981 163.713 394.717 163.514C395.454 163.311 396.332 163.21 397.353 163.21C398.369 163.21 399.244 163.311 399.977 163.514C400.71 163.713 401.272 164.006 401.662 164.392C402.053 164.775 402.248 165.239 402.248 165.785C402.248 166.333 402.053 166.801 401.662 167.188C401.272 167.575 400.71 167.867 399.977 168.066C399.244 168.269 398.369 168.37 397.353 168.37C396.332 168.37 395.454 168.269 394.717 168.066C393.981 167.867 393.415 167.575 393.021 167.188C392.631 166.801 392.436 166.333 392.436 165.785ZM392.524 154.713H402.264V156.122H394.248V158.309H402.342V159.707H392.524V154.713ZM394.204 165.785C394.2 166.197 394.465 166.508 394.999 166.718C395.537 166.928 396.321 167.033 397.353 167.033C398.373 167.033 399.154 166.928 399.695 166.718C400.237 166.508 400.509 166.197 400.513 165.785C400.509 165.383 400.235 165.077 399.69 164.867C399.148 164.654 398.369 164.545 397.353 164.541C396.329 164.545 395.546 164.654 395.005 164.867C394.467 165.077 394.2 165.383 394.204 165.785ZM417.662 163.309H404.75V161.906H410.347V160.729H406.385V156.989H414.33V155.934H406.352V154.575H416.065V158.254H408.109V159.381H416.341V160.729H412.065V161.906H417.662V163.309ZM406.192 164.199H416.142V168.298H414.396V165.58H406.192V164.199ZM426.816 160.094H424.18V161.696C425.403 161.645 426.556 161.562 427.639 161.448L427.766 162.702C426.403 162.89 424.978 163.018 423.49 163.088C422.005 163.158 420.471 163.193 418.887 163.193L418.655 161.812C420.136 161.805 421.399 161.788 422.445 161.762V160.094H419.882V155.144H426.7V156.552H421.628V158.702H426.816V160.094ZM420.91 164.099H422.661V166.707H430.788V168.116H420.91V164.099ZM428.617 154.271H430.374V164.873H428.617V154.271ZM447.363 157.713H449.336V159.127H447.363V162.552H445.617V154.271H447.363V157.713ZM436.164 161.365C437.225 161.074 438.142 160.694 438.916 160.227C439.689 159.755 440.299 159.217 440.744 158.613C441.194 158.006 441.468 157.348 441.568 156.641H436.816V155.238H443.457C443.457 156.464 443.198 157.573 442.678 158.564C442.163 159.554 441.413 160.405 440.43 161.116C439.446 161.823 438.258 162.374 436.866 162.768L436.164 161.365ZM438.076 165.541C438.072 164.971 438.266 164.471 438.656 164.044C439.047 163.617 439.599 163.289 440.314 163.061C441.028 162.832 441.857 162.718 442.8 162.718C443.746 162.718 444.575 162.832 445.286 163.061C445.997 163.289 446.546 163.617 446.932 164.044C447.323 164.471 447.518 164.971 447.518 165.541C447.518 166.123 447.323 166.628 446.932 167.055C446.546 167.483 445.997 167.81 445.286 168.039C444.579 168.267 443.75 168.381 442.8 168.381C441.853 168.381 441.023 168.267 440.308 168.039C439.597 167.81 439.047 167.481 438.656 167.05C438.266 166.622 438.072 166.12 438.076 165.541ZM439.794 165.541C439.794 165.847 439.914 166.11 440.153 166.331C440.393 166.552 440.739 166.722 441.192 166.84C441.645 166.958 442.181 167.017 442.8 167.017C443.419 167.017 443.953 166.958 444.402 166.84C444.855 166.722 445.201 166.552 445.441 166.331C445.684 166.11 445.805 165.847 445.805 165.541C445.805 165.236 445.684 164.974 445.441 164.757C445.201 164.536 444.855 164.368 444.402 164.254C443.953 164.14 443.419 164.083 442.8 164.083C442.181 164.083 441.645 164.14 441.192 164.254C440.739 164.368 440.393 164.536 440.153 164.757C439.914 164.974 439.794 165.236 439.794 165.541ZM453.318 164.083H459.534V162.735H461.269V168.215H451.595V162.735H453.318V164.083ZM450.048 160.519H462.915V161.934H450.048V160.519ZM450.711 158.409C451.668 158.287 452.517 158.053 453.258 157.707C453.998 157.361 454.571 156.947 454.976 156.464C455.381 155.982 455.585 155.479 455.589 154.956V154.42H457.379V154.956C457.376 155.464 457.578 155.963 457.987 156.453C458.396 156.939 458.97 157.359 459.711 157.713C460.451 158.063 461.295 158.295 462.241 158.409L461.622 159.773C460.841 159.67 460.118 159.49 459.451 159.232C458.784 158.974 458.199 158.654 457.694 158.271C457.19 157.888 456.786 157.459 456.484 156.983C456.182 157.459 455.777 157.888 455.269 158.271C454.764 158.654 454.178 158.974 453.512 159.232C452.845 159.49 452.125 159.67 451.352 159.773L450.711 158.409ZM459.534 166.84V165.414H453.318V166.84H459.534ZM476.787 166.641H463.876V165.238H469.401V161.961H471.124V165.238H476.787V166.641ZM464.246 160.873C465.211 160.718 466.078 160.403 466.848 159.928C467.622 159.453 468.228 158.882 468.666 158.215C469.104 157.549 469.325 156.864 469.329 156.16V155.127H471.174V156.16C471.174 156.864 471.393 157.549 471.832 158.215C472.27 158.882 472.88 159.453 473.66 159.928C474.441 160.403 475.316 160.718 476.285 160.873L475.533 162.32C474.745 162.169 474.007 161.923 473.318 161.58C472.633 161.234 472.029 160.812 471.506 160.315C470.983 159.814 470.565 159.258 470.252 158.646C469.942 159.258 469.528 159.814 469.008 160.315C468.489 160.816 467.887 161.239 467.202 161.586C466.517 161.928 465.782 162.173 464.997 162.32L464.246 160.873ZM488.765 159.785H490.859V161.227H488.765V168.359H487.024V154.271H488.765V159.785ZM477.632 164.503C479.352 163.641 480.678 162.604 481.61 161.392C482.546 160.18 483.098 158.772 483.268 157.166H478.384V155.735H485.035C485.024 160.372 482.883 163.74 478.61 165.84L477.632 164.503ZM498.533 164.05H500.39V162.536H501.997V167.006C502.535 166.781 502.985 166.486 503.346 166.122C503.71 165.757 503.981 165.354 504.158 164.912C504.335 164.47 504.425 164.015 504.428 163.547V162.425H506.158V163.547C506.154 164.052 506.242 164.532 506.423 164.989C506.603 165.446 506.88 165.853 507.252 166.21C507.627 166.564 508.097 166.836 508.66 167.028L507.765 168.331C507.161 168.11 506.651 167.797 506.235 167.392C505.823 166.987 505.5 166.506 505.268 165.95C505.029 166.488 504.705 166.961 504.296 167.37C503.887 167.779 503.397 168.099 502.826 168.331L501.997 167.099V168.215H496.915V162.536H498.533V164.05ZM495.522 158.133C495.519 157.495 495.675 156.928 495.992 156.431C496.312 155.93 496.756 155.54 497.323 155.26C497.891 154.98 498.532 154.84 499.246 154.84C499.85 154.84 500.404 154.947 500.909 155.16C501.417 155.37 501.841 155.669 502.18 156.055C502.519 156.442 502.747 156.89 502.865 157.398H505.423V154.271H507.158V161.746H505.423V158.823H502.876C502.765 159.343 502.539 159.801 502.196 160.199C501.858 160.593 501.432 160.899 500.92 161.116C500.412 161.333 499.854 161.442 499.246 161.442C498.532 161.442 497.891 161.302 497.323 161.022C496.756 160.742 496.312 160.352 495.992 159.851C495.675 159.346 495.519 158.773 495.522 158.133ZM497.174 158.133C497.174 158.505 497.261 158.834 497.434 159.122C497.611 159.405 497.856 159.626 498.169 159.785C498.486 159.939 498.845 160.018 499.246 160.022C499.644 160.018 499.997 159.939 500.307 159.785C500.616 159.626 500.858 159.405 501.031 159.122C501.204 158.834 501.29 158.505 501.29 158.133C501.29 157.764 501.204 157.44 501.031 157.16C500.858 156.877 500.614 156.659 500.301 156.508C499.992 156.354 499.64 156.276 499.246 156.276C498.845 156.276 498.486 156.354 498.169 156.508C497.856 156.659 497.611 156.877 497.434 157.16C497.261 157.44 497.174 157.764 497.174 158.133ZM500.39 166.884V165.348H498.533V166.884H500.39ZM513.013 155.293C513.647 155.293 514.22 155.462 514.732 155.801C515.244 156.14 515.66 156.624 515.98 157.254C516.304 157.88 516.507 158.617 516.588 159.464H519.273V154.271H520.997V168.414H519.273V160.867H516.605C516.546 161.766 516.356 162.549 516.036 163.215C515.715 163.878 515.293 164.389 514.77 164.746C514.251 165.103 513.665 165.282 513.013 165.282C512.31 165.282 511.682 165.079 511.129 164.674C510.581 164.265 510.153 163.683 509.848 162.928C509.542 162.169 509.391 161.287 509.395 160.282C509.391 159.284 509.542 158.409 509.848 157.657C510.153 156.902 510.581 156.32 511.129 155.912C511.682 155.499 512.31 155.293 513.013 155.293ZM511.058 160.282C511.058 160.993 511.139 161.606 511.301 162.122C511.463 162.637 511.691 163.031 511.986 163.304C512.284 163.576 512.627 163.713 513.013 163.713C513.404 163.713 513.746 163.578 514.041 163.309C514.339 163.037 514.57 162.643 514.732 162.127C514.897 161.608 514.98 160.993 514.98 160.282C514.98 159.575 514.897 158.965 514.732 158.453C514.57 157.937 514.339 157.543 514.041 157.271C513.746 156.998 513.404 156.862 513.013 156.862C512.627 156.862 512.284 156.998 511.986 157.271C511.691 157.543 511.463 157.937 511.301 158.453C511.139 158.965 511.058 159.575 511.058 160.282ZM535.897 166.674H522.985V165.249H525.969V161.674C525.394 161.346 524.948 160.934 524.632 160.436C524.319 159.936 524.164 159.378 524.168 158.762C524.168 158.026 524.39 157.376 524.836 156.812C525.285 156.245 525.908 155.805 526.703 155.492C527.499 155.179 528.401 155.022 529.411 155.022C530.42 155.022 531.324 155.179 532.123 155.492C532.923 155.805 533.547 156.245 533.996 156.812C534.449 157.376 534.676 158.026 534.676 158.762C534.676 159.366 534.523 159.915 534.217 160.409C533.912 160.899 533.479 161.309 532.919 161.641V165.249H535.897V166.674ZM525.869 158.762C525.869 159.238 526.017 159.656 526.311 160.017C526.606 160.374 527.02 160.65 527.554 160.845C528.092 161.037 528.711 161.133 529.411 161.133C530.107 161.133 530.724 161.035 531.261 160.84C531.799 160.645 532.217 160.368 532.516 160.011C532.818 159.654 532.969 159.238 532.969 158.762C532.969 158.28 532.819 157.862 532.521 157.508C532.223 157.151 531.805 156.878 531.267 156.691C530.729 156.503 530.11 156.409 529.411 156.409C528.707 156.409 528.088 156.503 527.554 156.691C527.02 156.878 526.606 157.151 526.311 157.508C526.017 157.862 525.869 158.28 525.869 158.762ZM531.162 165.249V162.309C530.613 162.427 530.029 162.486 529.411 162.486C528.807 162.486 528.232 162.427 527.687 162.309V165.249H531.162ZM539.548 163.68H537.78L537.598 155.685H539.725L539.548 163.68ZM537.454 165.912C537.451 165.694 537.502 165.494 537.609 165.309C537.719 165.125 537.867 164.98 538.051 164.873C538.239 164.766 538.443 164.713 538.664 164.713C538.878 164.713 539.077 164.766 539.261 164.873C539.449 164.98 539.598 165.125 539.708 165.309C539.819 165.494 539.874 165.694 539.874 165.912C539.874 166.129 539.819 166.331 539.708 166.519C539.598 166.703 539.449 166.851 539.261 166.961C539.077 167.068 538.878 167.122 538.664 167.122C538.443 167.122 538.239 167.068 538.051 166.961C537.867 166.851 537.719 166.703 537.609 166.519C537.502 166.331 537.451 166.129 537.454 165.912ZM284.155 188.685H271.243V187.26H276.818V184.022H278.563V187.26H284.155V188.685ZM271.807 183.227C272.727 183.076 273.56 182.783 274.304 182.348C275.052 181.91 275.643 181.383 276.077 180.768C276.512 180.149 276.74 179.505 276.762 178.834H272.315V177.409H283.033V178.834H278.586C278.604 179.505 278.832 180.144 279.271 180.751C279.709 181.359 280.308 181.877 281.066 182.304C281.829 182.727 282.685 183.011 283.635 183.155L282.939 184.53C282.147 184.387 281.409 184.155 280.724 183.834C280.039 183.514 279.436 183.12 278.917 182.652C278.398 182.18 277.987 181.652 277.685 181.066C277.387 181.659 276.98 182.197 276.464 182.68C275.952 183.158 275.357 183.562 274.68 183.89C274.005 184.217 273.278 184.455 272.497 184.602L271.807 183.227ZM292.242 184.166H285.552V177.481H292.242V184.166ZM287.165 185.58H288.894V188.707H296.767V190.116H287.165V185.58ZM290.535 182.785V178.873H287.265V182.785H290.535ZM294.469 176.271H296.215V180.409H298.187V181.851H296.215V186.586H294.469V176.271ZM310.043 180.331H312.015V181.773H310.043V186.453H308.281V176.271H310.043V180.331ZM298.844 183.613C299.916 183.304 300.842 182.908 301.623 182.425C302.404 181.939 303.019 181.387 303.468 180.768C303.921 180.149 304.198 179.481 304.297 178.762H299.446V177.337H306.203C306.203 178.578 305.942 179.702 305.419 180.707C304.896 181.709 304.139 182.573 303.148 183.298C302.161 184.02 300.969 184.586 299.573 184.994L298.844 183.613ZM300.971 185.414H302.723V188.707H310.573V190.116H300.971V185.414ZM323.657 178.972H318.955V185.541C320.127 185.534 321.13 185.501 321.966 185.442C322.802 185.379 323.64 185.269 324.48 185.11L324.662 186.525C323.745 186.702 322.834 186.821 321.928 186.884C321.025 186.947 319.911 186.978 318.585 186.978H318.336H317.204V177.547H323.657V178.972ZM322.911 181.238H326.64V176.271H328.375V190.414H326.64V182.663H322.911V181.238ZM345.293 179.309H347.265V180.74H345.293V183.376H343.547V176.271H345.293V179.309ZM334.63 177.171H341.321V183.006H334.63V177.171ZM335.492 184.58H337.188V188.586C338.127 188.527 338.947 188.383 339.647 188.155L339.906 189.514C339.335 189.713 338.763 189.843 338.188 189.906C337.613 189.972 336.965 190.006 336.243 190.006H335.492V184.58ZM339.613 181.635V178.541H336.343V181.635H339.613ZM339.409 184.729H342.138V183.63H343.834V184.729H346.525V185.989H339.409V184.729ZM340.271 188.387C340.267 187.982 340.378 187.63 340.602 187.331C340.827 187.033 341.142 186.805 341.547 186.646C341.956 186.484 342.427 186.403 342.961 186.403C343.488 186.403 343.956 186.484 344.365 186.646C344.774 186.805 345.092 187.033 345.321 187.331C345.549 187.63 345.665 187.982 345.669 188.387C345.665 188.785 345.547 189.133 345.315 189.431C345.087 189.729 344.768 189.958 344.359 190.116C343.954 190.278 343.488 190.359 342.961 190.359C342.427 190.359 341.956 190.278 341.547 190.116C341.142 189.958 340.827 189.729 340.602 189.431C340.378 189.133 340.267 188.785 340.271 188.387ZM341.812 188.387C341.809 188.637 341.914 188.834 342.127 188.978C342.341 189.118 342.619 189.188 342.961 189.188C343.3 189.188 343.575 189.118 343.785 188.978C343.998 188.834 344.105 188.637 344.105 188.387C344.105 188.14 344 187.947 343.79 187.807C343.58 187.667 343.304 187.593 342.961 187.586C342.615 187.593 342.335 187.667 342.122 187.807C341.912 187.947 341.809 188.14 341.812 188.387ZM360.845 184.95H347.977V183.564H360.845V184.95ZM349.314 179.575C349.314 178.985 349.523 178.477 349.939 178.05C350.355 177.619 350.946 177.289 351.712 177.061C352.482 176.832 353.379 176.72 354.403 176.724C355.423 176.72 356.316 176.832 357.082 177.061C357.849 177.289 358.44 177.619 358.856 178.05C359.276 178.477 359.486 178.985 359.486 179.575C359.486 180.168 359.276 180.681 358.856 181.116C358.44 181.551 357.849 181.886 357.082 182.122C356.316 182.354 355.423 182.47 354.403 182.47C353.379 182.47 352.482 182.354 351.712 182.122C350.946 181.886 350.355 181.551 349.939 181.116C349.523 180.681 349.314 180.168 349.314 179.575ZM349.563 185.994H351.309V188.707H359.392V190.116H349.563V185.994ZM351.116 179.575C351.112 179.891 351.241 180.16 351.502 180.381C351.764 180.602 352.141 180.77 352.635 180.884C353.128 180.998 353.718 181.055 354.403 181.055C355.088 181.055 355.677 180.998 356.171 180.884C356.664 180.77 357.042 180.602 357.303 180.381C357.569 180.16 357.701 179.891 357.701 179.575C357.701 179.269 357.569 179.006 357.303 178.785C357.042 178.564 356.663 178.396 356.165 178.282C355.672 178.164 355.084 178.105 354.403 178.105C353.718 178.105 353.128 178.164 352.635 178.282C352.141 178.396 351.764 178.564 351.502 178.785C351.241 179.006 351.112 179.269 351.116 179.575ZM376.746 179.713H378.718V181.127H376.746V184.552H375V176.271H376.746V179.713ZM365.547 183.365C366.608 183.074 367.525 182.694 368.299 182.227C369.072 181.755 369.682 181.217 370.127 180.613C370.577 180.006 370.851 179.348 370.95 178.641H366.199V177.238H372.84C372.84 178.464 372.58 179.573 372.061 180.564C371.545 181.554 370.796 182.405 369.812 183.116C368.829 183.823 367.641 184.374 366.249 184.768L365.547 183.365ZM367.459 187.541C367.455 186.971 367.648 186.471 368.039 186.044C368.429 185.617 368.982 185.289 369.696 185.061C370.411 184.832 371.24 184.718 372.183 184.718C373.129 184.718 373.958 184.832 374.669 185.061C375.38 185.289 375.928 185.617 376.315 186.044C376.706 186.471 376.901 186.971 376.901 187.541C376.901 188.123 376.706 188.628 376.315 189.055C375.928 189.483 375.38 189.81 374.669 190.039C373.962 190.267 373.133 190.381 372.183 190.381C371.236 190.381 370.405 190.267 369.691 190.039C368.98 189.81 368.429 189.481 368.039 189.05C367.648 188.622 367.455 188.12 367.459 187.541ZM369.177 187.541C369.177 187.847 369.297 188.11 369.536 188.331C369.776 188.552 370.122 188.722 370.575 188.84C371.028 188.958 371.564 189.017 372.183 189.017C372.801 189.017 373.335 188.958 373.785 188.84C374.238 188.722 374.584 188.552 374.823 188.331C375.067 188.11 375.188 187.847 375.188 187.541C375.188 187.236 375.067 186.974 374.823 186.757C374.584 186.536 374.238 186.368 373.785 186.254C373.335 186.14 372.801 186.083 372.183 186.083C371.564 186.083 371.028 186.14 370.575 186.254C370.122 186.368 369.776 186.536 369.536 186.757C369.297 186.974 369.177 187.236 369.177 187.541ZM382.701 186.083H388.917V184.735H390.652V190.215H380.978V184.735H382.701V186.083ZM379.431 182.519H392.298V183.934H379.431V182.519ZM380.094 180.409C381.051 180.287 381.9 180.053 382.64 179.707C383.381 179.361 383.954 178.947 384.359 178.464C384.764 177.982 384.968 177.479 384.972 176.956V176.42H386.762V176.956C386.758 177.464 386.961 177.963 387.37 178.453C387.779 178.939 388.353 179.359 389.094 179.713C389.834 180.063 390.677 180.295 391.624 180.409L391.005 181.773C390.224 181.67 389.501 181.49 388.834 181.232C388.167 180.974 387.582 180.654 387.077 180.271C386.572 179.888 386.169 179.459 385.867 178.983C385.565 179.459 385.16 179.888 384.652 180.271C384.147 180.654 383.561 180.974 382.895 181.232C382.228 181.49 381.508 181.67 380.734 181.773L380.094 180.409ZM388.917 188.84V187.414H382.701V188.84H388.917ZM406.17 188.641H393.259V187.238H398.784V183.961H400.507V187.238H406.17V188.641ZM393.629 182.873C394.594 182.718 395.461 182.403 396.231 181.928C397.005 181.453 397.61 180.882 398.049 180.215C398.487 179.549 398.708 178.864 398.712 178.16V177.127H400.557V178.16C400.557 178.864 400.776 179.549 401.214 180.215C401.653 180.882 402.262 181.453 403.043 181.928C403.824 182.403 404.699 182.718 405.668 182.873L404.916 184.32C404.128 184.169 403.389 183.923 402.701 183.58C402.016 183.234 401.412 182.812 400.889 182.315C400.365 181.814 399.947 181.258 399.634 180.646C399.325 181.258 398.911 181.814 398.391 182.315C397.872 182.816 397.27 183.239 396.585 183.586C395.9 183.928 395.165 184.173 394.38 184.32L393.629 182.873ZM419.982 183.978H407.07V182.674H419.982V183.978ZM408.573 184.823H418.413V188.044H410.319V189.028H418.844V190.232H408.59V186.917H416.689V186.05H408.573V184.823ZM408.672 176.586H418.385V179.768H410.429V180.68H418.628V181.878H408.706V178.641H416.65V177.779H408.672V176.586ZM431.883 184.166H425.192V177.481H431.883V184.166ZM426.806 185.58H428.535V188.707H436.408V190.116H426.806V185.58ZM430.176 182.785V178.873H426.905V182.785H430.176ZM434.11 176.271H435.855V180.409H437.828V181.851H435.855V186.586H434.11V176.271ZM451.695 183.144H449.601V190.359H447.86V176.271H449.601V181.718H451.695V183.144ZM439.032 177.635H440.761V185.431C442.838 185.405 444.844 185.195 446.777 184.801L446.965 186.26C445.846 186.484 444.73 186.643 443.617 186.735C442.509 186.827 441.376 186.871 440.219 186.867H439.032V177.635ZM464.103 183.475H462.385V176.271H464.103V183.475ZM452.357 182.088C453.097 181.853 453.729 181.51 454.252 181.061C454.775 180.608 455.171 180.092 455.44 179.514C455.709 178.932 455.843 178.326 455.843 177.696V176.613H457.639V177.696C457.635 178.304 457.764 178.884 458.026 179.436C458.291 179.989 458.681 180.475 459.197 180.895C459.712 181.315 460.335 181.634 461.064 181.851L460.208 183.199C459.401 182.952 458.705 182.58 458.119 182.083C457.537 181.582 457.083 180.989 456.755 180.304C456.427 181.052 455.963 181.698 455.363 182.243C454.766 182.788 454.055 183.192 453.23 183.453L452.357 182.088ZM454.749 184.122H464.125V187.79H456.484V188.884H464.55V190.265H454.793V186.497H462.396V185.475H454.749V184.122ZM477.347 177.442C477.347 178.035 477.557 178.613 477.976 179.177C478.396 179.737 478.986 180.217 479.744 180.619C480.507 181.017 481.374 181.278 482.347 181.403L481.662 182.807C480.87 182.689 480.135 182.486 479.457 182.199C478.779 181.908 478.183 181.549 477.667 181.122C477.155 180.691 476.746 180.21 476.441 179.68C476.131 180.21 475.719 180.691 475.203 181.122C474.691 181.549 474.098 181.908 473.424 182.199C472.75 182.486 472.021 182.689 471.236 182.807L470.546 181.403C471.514 181.278 472.376 181.017 473.131 180.619C473.89 180.217 474.477 179.737 474.894 179.177C475.313 178.617 475.523 178.039 475.523 177.442V176.718H477.347V177.442ZM469.993 184.033H482.86V185.464H477.253V190.381H475.534V185.464H469.993V184.033ZM492.635 185.459C492.635 186.077 492.78 186.669 493.071 187.232C493.366 187.792 493.804 188.258 494.386 188.63C494.78 188.365 495.112 188.055 495.38 187.702C495.653 187.344 495.856 186.974 495.988 186.591C496.121 186.204 496.187 185.827 496.187 185.459V184.878H497.9V185.459C497.896 185.959 497.994 186.436 498.193 186.89C498.392 187.343 498.695 187.746 499.104 188.099C499.517 188.449 500.023 188.72 500.624 188.912L499.773 190.177C499.106 189.952 498.539 189.624 498.071 189.193C497.607 188.766 497.248 188.263 496.994 187.685C496.754 188.274 496.421 188.796 495.994 189.249C495.566 189.705 495.045 190.057 494.43 190.304C493.786 190.064 493.244 189.724 492.806 189.282C492.371 188.84 492.036 188.324 491.8 187.735C491.539 188.295 491.18 188.785 490.723 189.204C490.266 189.624 489.717 189.948 489.077 190.177L488.22 188.912C488.81 188.705 489.307 188.42 489.712 188.055C490.121 187.691 490.427 187.285 490.629 186.84C490.835 186.39 490.94 185.93 490.944 185.459V184.878H492.635V185.459ZM487.872 180.398C487.872 179.746 488.036 179.166 488.364 178.657C488.692 178.145 489.145 177.748 489.723 177.464C490.305 177.177 490.957 177.033 491.679 177.033C492.397 177.033 493.045 177.177 493.624 177.464C494.202 177.748 494.655 178.145 494.983 178.657C495.314 179.166 495.48 179.746 495.48 180.398C495.48 181.039 495.314 181.613 494.983 182.122C494.655 182.63 494.202 183.026 493.624 183.309C493.045 183.593 492.397 183.735 491.679 183.735C490.957 183.735 490.307 183.593 489.729 183.309C489.15 183.026 488.695 182.63 488.364 182.122C488.036 181.613 487.872 181.039 487.872 180.398ZM489.568 180.398C489.568 180.773 489.657 181.105 489.834 181.392C490.014 181.68 490.264 181.902 490.585 182.061C490.905 182.215 491.27 182.293 491.679 182.293C492.08 182.293 492.439 182.215 492.756 182.061C493.073 181.902 493.322 181.68 493.502 181.392C493.683 181.105 493.773 180.773 493.773 180.398C493.773 180.015 493.683 179.68 493.502 179.392C493.325 179.105 493.077 178.884 492.756 178.729C492.439 178.575 492.08 178.497 491.679 178.497C491.27 178.497 490.905 178.575 490.585 178.729C490.264 178.884 490.014 179.105 489.834 179.392C489.657 179.68 489.568 180.015 489.568 180.398ZM497.635 176.282H499.375V184.282H497.635V176.282ZM512.91 184.066H508.733V187.293H514.358V188.718H501.446V187.293H507.01V184.066H503.01V177.315H512.8V178.707H504.75V182.685H512.91V184.066ZM528.169 185.309H515.258V183.906H520.854V182.729H516.893V178.989H524.838V177.934H516.86V176.575H526.573V180.254H518.617V181.381H526.849V182.729H522.573V183.906H528.169V185.309ZM516.7 186.199H526.65V190.298H524.904V187.58H516.7V186.199ZM544.612 178.293H540.513C540.568 178.742 540.789 179.171 541.176 179.58C541.566 179.985 542.1 180.333 542.778 180.624C543.459 180.915 544.242 181.114 545.126 181.221L544.479 182.591C543.643 182.488 542.881 182.302 542.192 182.033C541.507 181.764 540.92 181.427 540.43 181.022C539.943 180.617 539.573 180.16 539.319 179.652C539.065 180.157 538.695 180.613 538.209 181.022C537.726 181.427 537.142 181.764 536.457 182.033C535.772 182.302 535.013 182.488 534.181 182.591L533.546 181.221C534.426 181.114 535.203 180.915 535.877 180.624C536.555 180.333 537.087 179.985 537.474 179.58C537.864 179.171 538.087 178.742 538.142 178.293H534.076V176.912H544.612V178.293ZM532.883 183.376H545.794V184.779H540.341V187.359H538.623V184.779H532.883V183.376ZM534.446 186.055H536.181V188.707H544.369V190.116H534.446V186.055ZM558.479 190.414H556.727V176.271H558.479V190.414ZM547.468 177.42H549.208V180.95H552.628V177.42H554.346V187.077H547.468V177.42ZM552.628 185.652V182.309H549.208V185.652H552.628ZM571.616 181.895H573.793V183.326H571.616V190.381H569.898V176.271H571.616V181.895ZM560.478 178.431H563.815V176.47H565.55V178.431H568.81V179.834H560.478V178.431ZM561.13 184.072C561.126 183.431 561.277 182.858 561.583 182.354C561.889 181.849 562.312 181.455 562.854 181.171C563.399 180.888 564.012 180.746 564.694 180.746C565.364 180.746 565.968 180.888 566.506 181.171C567.047 181.455 567.471 181.849 567.777 182.354C568.086 182.858 568.242 183.431 568.246 184.072C568.242 184.713 568.086 185.285 567.777 185.79C567.471 186.295 567.047 186.689 566.506 186.972C565.968 187.252 565.364 187.392 564.694 187.392C564.012 187.392 563.399 187.252 562.854 186.972C562.312 186.689 561.889 186.295 561.583 185.79C561.277 185.285 561.126 184.713 561.13 184.072ZM562.793 184.072C562.789 184.451 562.869 184.785 563.031 185.072C563.193 185.359 563.417 185.58 563.705 185.735C563.996 185.886 564.325 185.959 564.694 185.956C565.055 185.959 565.377 185.886 565.661 185.735C565.948 185.58 566.172 185.359 566.335 185.072C566.497 184.785 566.579 184.451 566.583 184.072C566.579 183.696 566.497 183.365 566.335 183.077C566.172 182.79 565.948 182.567 565.661 182.409C565.377 182.25 565.055 182.171 564.694 182.171C564.329 182.171 564.001 182.25 563.71 182.409C563.419 182.567 563.193 182.79 563.031 183.077C562.869 183.365 562.789 183.696 562.793 184.072ZM580.632 177.265C580.632 178.297 580.481 179.232 580.179 180.072H581.92V176.564H583.56V184.155H581.92V181.464H579.5C578.623 182.82 577.223 183.902 575.301 184.713L574.439 183.425C575.776 182.895 576.805 182.236 577.527 181.448C578.249 180.656 578.682 179.731 578.826 178.674H575.113V177.265H580.632ZM575.091 189.022C575.68 188.816 576.181 188.53 576.594 188.166C577.01 187.797 577.321 187.387 577.527 186.934C577.737 186.481 577.842 186.02 577.842 185.552V184.796H579.5V185.552C579.496 186.171 579.64 186.762 579.931 187.326C580.222 187.89 580.658 188.359 581.24 188.735C581.634 188.466 581.966 188.151 582.235 187.79C582.503 187.429 582.704 187.057 582.837 186.674C582.969 186.287 583.037 185.913 583.041 185.552V184.796H584.743V185.552C584.739 186.05 584.839 186.527 585.041 186.983C585.244 187.44 585.549 187.847 585.958 188.204C586.371 188.562 586.875 188.834 587.472 189.022L586.632 190.298C585.962 190.066 585.393 189.733 584.925 189.298C584.461 188.867 584.104 188.359 583.853 187.773C583.614 188.363 583.279 188.886 582.848 189.343C582.421 189.803 581.896 190.158 581.273 190.409C580.632 190.169 580.095 189.825 579.66 189.376C579.229 188.93 578.896 188.409 578.66 187.812C578.402 188.376 578.047 188.871 577.594 189.298C577.141 189.729 576.595 190.063 575.958 190.298L575.091 189.022ZM584.809 176.282H586.461V184.354H584.809V176.282ZM591.483 186.083H597.698V184.735H599.433V190.215H589.759V184.735H591.483V186.083ZM588.212 182.519H601.079V183.934H588.212V182.519ZM588.875 180.409C589.832 180.287 590.681 180.053 591.422 179.707C592.162 179.361 592.735 178.947 593.14 178.464C593.545 177.982 593.75 177.479 593.753 176.956V176.42H595.543V176.956C595.54 177.464 595.742 177.963 596.151 178.453C596.56 178.939 597.134 179.359 597.875 179.713C598.615 180.063 599.459 180.295 600.405 180.409L599.786 181.773C599.006 181.67 598.282 181.49 597.615 181.232C596.948 180.974 596.363 180.654 595.858 180.271C595.354 179.888 594.95 179.459 594.648 178.983C594.346 179.459 593.941 179.888 593.433 180.271C592.928 180.654 592.343 180.974 591.676 181.232C591.009 181.49 590.289 181.67 589.516 181.773L588.875 180.409ZM597.698 188.84V187.414H591.483V188.84H597.698ZM613.83 190.381H612.101V176.271H613.83V190.381ZM602.852 177.635H604.57V185.359C606.732 185.333 608.819 185.122 610.83 184.724L611.051 186.171C609.872 186.414 608.708 186.589 607.559 186.696C606.41 186.799 605.244 186.851 604.062 186.851H602.852V177.635ZM626.929 181.624H629.106V183.05H626.929V190.414H625.188V176.271H626.929V181.624ZM616.448 177.602H623.056V179.011H618.177V185.508C619.352 185.501 620.395 185.464 621.305 185.398C622.214 185.328 623.133 185.21 624.061 185.044L624.26 186.508C623.262 186.681 622.277 186.799 621.305 186.862C620.336 186.921 619.196 186.95 617.885 186.95H617.608H616.448V177.602Z" fill="#CAD0D7"/>
<defs>
<filter id="filter0_d_1727_945" x="0" y="0" width="900" height="308" filterUnits="userSpaceOnUse" color-interpolation-filters="sRGB">
<feFlood flood-opacity="0" result="BackgroundImageFix"/>
<feColorMatrix in="SourceAlpha" type="matrix" values="0 0 0 0 0 0 0 0 0 0 0 0 0 0 0 0 0 0 127 0" result="hardAlpha"/>
<feOffset dy="2"/>
<feGaussianBlur stdDeviation="5"/>
<feComposite in2="hardAlpha" operator="out"/>
<feColorMatrix type="matrix" values="0 0 0 0 0 0 0 0 0 0 0 0 0 0 0 0 0 0 0.1 0"/>
<feBlend mode="normal" in2="BackgroundImageFix" result="effect1_dropShadow_1727_945"/>
<feBlend mode="normal" in="SourceGraphic" in2="effect1_dropShadow_1727_945" result="shape"/>
</filter>
</defs>
</svg>
