<svg width="19" height="19" viewBox="0 0 19 19" fill="none" xmlns="http://www.w3.org/2000/svg">
<path d="M12.7758 8.82363C13.5214 8.82363 14.1258 8.21921 14.1258 7.47363C14.1258 6.72804 13.5214 6.12363 12.7758 6.12363C12.0302 6.12363 11.4258 6.72804 11.4258 7.47363C11.4258 8.21921 12.0302 8.82363 12.7758 8.82363Z" fill="#FF658C"/>
<path d="M6.47598 8.82363C7.22156 8.82363 7.82598 8.21921 7.82598 7.47363C7.82598 6.72804 7.22156 6.12363 6.47598 6.12363C5.73039 6.12363 5.12598 6.72804 5.12598 7.47363C5.12598 8.21921 5.73039 8.82363 6.47598 8.82363Z" fill="#FF658C"/>
<path d="M9.61698 0.723633C4.64898 0.723633 0.625977 4.75563 0.625977 9.72363C0.625977 14.6916 4.64898 18.7236 9.61698 18.7236C14.594 18.7236 18.626 14.6916 18.626 9.72363C18.626 4.75563 14.594 0.723633 9.61698 0.723633ZM9.62598 16.9236C5.64798 16.9236 2.42598 13.7016 2.42598 9.72363C2.42598 5.74563 5.64798 2.52363 9.62598 2.52363C13.604 2.52363 16.826 5.74563 16.826 9.72363C16.826 13.7016 13.604 16.9236 9.62598 16.9236ZM13.595 11.4246C13.28 11.2266 12.857 11.3256 12.668 11.6406C12.002 12.6936 10.868 13.3236 9.62598 13.3236C8.38398 13.3236 7.24998 12.6936 6.58398 11.6316C6.38598 11.3166 5.97198 11.2176 5.65698 11.4156C5.34198 11.6136 5.24298 12.0276 5.44098 12.3426C6.35898 13.8096 7.91598 14.6736 9.62598 14.6736C11.336 14.6736 12.893 13.8006 13.811 12.3516C14.009 12.0366 13.91 11.6226 13.595 11.4246Z" fill="#FF658C"/>
</svg>
