<svg width="19" height="13" viewBox="0 0 19 13" fill="none" xmlns="http://www.w3.org/2000/svg">
<path opacity="0.9" d="M12.9545 5.36649C14.3882 5.36649 15.5368 4.21792 15.5368 2.79506C15.5368 1.3722 14.3882 0.223633 12.9545 0.223633C11.5209 0.223633 10.3636 1.3722 10.3636 2.79506C10.3636 4.21792 11.5209 5.36649 12.9545 5.36649ZM6.04545 5.36649C7.47909 5.36649 8.62773 4.21792 8.62773 2.79506C8.62773 1.3722 7.47909 0.223633 6.04545 0.223633C4.61182 0.223633 3.45455 1.3722 3.45455 2.79506C3.45455 4.21792 4.61182 5.36649 6.04545 5.36649ZM6.04545 7.08078C4.03318 7.08078 0 8.08363 0 10.0808V11.3665C0 11.8379 0.388636 12.2236 0.863636 12.2236H11.2273C11.7023 12.2236 12.0909 11.8379 12.0909 11.3665V10.0808C12.0909 8.08363 8.05773 7.08078 6.04545 7.08078ZM12.9545 7.08078C12.7041 7.08078 12.4191 7.09792 12.1168 7.12363C12.1341 7.1322 12.1427 7.14935 12.1514 7.15792C13.1359 7.86935 13.8182 8.82078 13.8182 10.0808V11.3665C13.8182 11.6665 13.7577 11.9579 13.6627 12.2236H18.1364C18.6114 12.2236 19 11.8379 19 11.3665V10.0808C19 8.08363 14.9668 7.08078 12.9545 7.08078Z" fill="#FF517E"/>
</svg>
