<svg width="16" height="17" viewBox="0 0 16 17" fill="none" xmlns="http://www.w3.org/2000/svg">
<path d="M7.6532 12.8328C5.1468 12.7145 3.15271 10.6485 3.15271 8.10929C3.15271 5.49914 5.27291 3.3779 7.88177 3.3779C10.4197 3.3779 12.4847 5.37297 12.603 7.88061L10.9478 7.38381C10.6246 5.98805 9.37143 4.95503 7.88177 4.95503C6.1399 4.95503 4.72906 6.36656 4.72906 8.10929C4.72906 9.59968 5.76158 10.8535 7.15665 11.1768L7.6532 12.8328ZM15.7635 8.10929C15.7635 8.34586 15.7557 8.58243 15.732 8.819L14.1793 8.35375C14.1872 8.27489 14.1872 8.18815 14.1872 8.10929C14.1872 4.62383 11.3655 1.80076 7.88177 1.80076C4.39803 1.80076 1.57635 4.62383 1.57635 8.10929C1.57635 11.5948 4.39803 14.4178 7.88177 14.4178C7.96059 14.4178 8.04729 14.4178 8.12611 14.4099L8.59113 15.9634C8.35468 15.9871 8.11823 15.9949 7.88177 15.9949C3.53103 15.9949 0 12.4622 0 8.10929C0 3.75641 3.53103 0.223633 7.88177 0.223633C12.2325 0.223633 15.7635 3.75641 15.7635 8.10929ZM12.7921 11.4686L14.5813 10.8693C14.9438 10.751 14.936 10.2305 14.5734 10.1201L8.58325 8.3222C8.28374 8.23546 8 8.51146 8.09458 8.81112L9.89163 14.8042C10.002 15.1748 10.5222 15.1827 10.6404 14.8121L11.2394 13.0221L14.3212 16.1053C14.4788 16.2631 14.7232 16.2631 14.8808 16.1053L15.8818 15.1039C16.0394 14.9462 16.0394 14.7017 15.8818 14.544L12.7921 11.4686Z" fill="#FF517E"/>
</svg>
