<svg width="16" height="19" viewBox="0 0 16 19" fill="none" xmlns="http://www.w3.org/2000/svg">
<path d="M12.441 0.337219C11.9523 0.337219 11.5524 0.737109 11.5524 1.22586V2.11451H4.44322V1.22586C4.44322 0.737109 4.04333 0.337219 3.55457 0.337219C3.06582 0.337219 2.66593 0.737109 2.66593 1.22586V2.11451H1.77729C0.790893 2.11451 0.00888643 2.91429 0.00888643 3.89179L0 16.3328C0 17.3103 0.790893 18.1101 1.77729 18.1101H14.2183C15.1958 18.1101 15.9956 17.3103 15.9956 16.3328V3.89179C15.9956 2.91429 15.1958 2.11451 14.2183 2.11451H13.3297V1.22586C13.3297 0.737109 12.9298 0.337219 12.441 0.337219ZM14.2183 16.3328H1.77729V7.44637H14.2183V16.3328ZM7.10915 10.1123C7.10915 9.62354 7.50904 9.22365 7.99779 9.22365C8.48655 9.22365 8.88644 9.62354 8.88644 10.1123C8.88644 10.6011 8.48655 11.0009 7.99779 11.0009C7.50904 11.0009 7.10915 10.6011 7.10915 10.1123ZM3.55457 10.1123C3.55457 9.62354 3.95446 9.22365 4.44322 9.22365C4.93197 9.22365 5.33186 9.62354 5.33186 10.1123C5.33186 10.6011 4.93197 11.0009 4.44322 11.0009C3.95446 11.0009 3.55457 10.6011 3.55457 10.1123ZM10.6637 10.1123C10.6637 9.62354 11.0636 9.22365 11.5524 9.22365C12.0411 9.22365 12.441 9.62354 12.441 10.1123C12.441 10.6011 12.0411 11.0009 11.5524 11.0009C11.0636 11.0009 10.6637 10.6011 10.6637 10.1123ZM7.10915 13.6669C7.10915 13.1781 7.50904 12.7782 7.99779 12.7782C8.48655 12.7782 8.88644 13.1781 8.88644 13.6669C8.88644 14.1556 8.48655 14.5555 7.99779 14.5555C7.50904 14.5555 7.10915 14.1556 7.10915 13.6669ZM3.55457 13.6669C3.55457 13.1781 3.95446 12.7782 4.44322 12.7782C4.93197 12.7782 5.33186 13.1781 5.33186 13.6669C5.33186 14.1556 4.93197 14.5555 4.44322 14.5555C3.95446 14.5555 3.55457 14.1556 3.55457 13.6669ZM10.6637 13.6669C10.6637 13.1781 11.0636 12.7782 11.5524 12.7782C12.0411 12.7782 12.441 13.1781 12.441 13.6669C12.441 14.1556 12.0411 14.5555 11.5524 14.5555C11.0636 14.5555 10.6637 14.1556 10.6637 13.6669Z" fill="#FF517E"/>
</svg>
