<svg width="16" height="16" viewBox="0 0 16 16" fill="none" xmlns="http://www.w3.org/2000/svg">
<path d="M14.1563 10.9526L12.0353 10.7105C11.526 10.652 11.025 10.8274 10.6659 11.1864L9.12949 12.7228C6.7664 11.5204 4.82916 9.59153 3.62674 7.22008L5.17152 5.67529C5.53058 5.31623 5.70593 4.81522 5.64748 4.30586L5.40532 2.20162C5.30512 1.35825 4.59536 0.723633 3.74365 0.723633H2.29907C1.35551 0.723633 0.570593 1.50855 0.629044 2.45212C1.0716 9.58318 6.77475 15.278 13.8974 15.7206C14.841 15.779 15.6259 14.9941 15.6259 14.0505V12.6059C15.6342 11.7626 14.9996 11.0528 14.1563 10.9526Z" fill="#FF658C"/>
</svg>
