<svg width="16" height="18" viewBox="0 0 16 18" fill="none" xmlns="http://www.w3.org/2000/svg">
<path d="M14.8765 3.55697C14.2548 3.55697 13.753 4.03155 13.753 4.61947V8.16113C13.753 8.35947 13.5882 8.5153 13.3785 8.5153C13.1687 8.5153 13.0039 8.35947 13.0039 8.16113V2.49447C13.0039 1.90655 12.5021 1.43197 11.8804 1.43197C11.2587 1.43197 10.7569 1.90655 10.7569 2.49447V8.16113C10.7569 8.35947 10.5921 8.5153 10.3824 8.5153C10.1727 8.5153 10.0079 8.35947 10.0079 8.16113V1.78613C10.0079 1.19822 9.50606 0.723633 8.88438 0.723633C8.2627 0.723633 7.76086 1.19822 7.76086 1.78613V8.15405C7.76086 8.35238 7.59608 8.50822 7.38635 8.50822C7.17663 8.50822 7.01185 8.35238 7.01185 8.15405V3.91113C7.01185 3.32322 6.51001 2.84863 5.88833 2.84863C5.26664 2.84863 4.76481 3.32322 4.76481 3.91113V11.9932L1.67887 10.3286C1.24445 10.0949 0.705156 10.1586 0.34563 10.4845C-0.103778 10.8953 -0.118758 11.5753 0.323159 11.9932L5.40147 16.8736C5.96323 17.419 6.72722 17.7236 7.53615 17.7236H13.0039C14.6593 17.7236 16 16.4557 16 14.8903V4.61947C16 4.03155 15.4982 3.55697 14.8765 3.55697Z" fill="#FE628B"/>
</svg>
