<svg xmlns="http://www.w3.org/2000/svg" width="197" height="196" viewBox="0 0 197 196" fill="none">
  <path d="M96.3694 195.58C61.326 195.58 24.6251 186.583 0 173.323C9.23442 161.247 20.5999 141.358 23.4412 126.914C51.8548 139.937 79.5581 146.33 100.158 146.33C120.284 146.33 133.544 140.174 133.781 128.571C134.017 117.206 119.811 113.181 94.9488 112.47C39.3055 110.813 6.62984 98.5004 8.05052 57.7743C9.23442 20.5998 41.1997 0 91.1603 0C118.39 0 151.066 5.68271 187.056 17.9953C179.716 31.2549 172.139 53.5123 171.665 68.1926C139.937 54.9329 116.732 50.1973 100.631 50.1973C80.0316 50.1973 71.034 58.0111 70.5604 66.2984C69.8501 79.3213 82.873 83.8201 104.42 84.2937C164.562 85.7143 196.764 98.5005 196.054 132.597C195.107 179.242 147.514 195.58 96.3694 195.58Z" fill="url(#paint0_linear_374_14)"/>
  <defs>
    <linearGradient id="paint0_linear_374_14" x1="98.0326" y1="0" x2="98.0326" y2="195.58" gradientUnits="userSpaceOnUse">
      <stop stop-color="white" stop-opacity="0.76"/>
      <stop offset="1" stop-color="white" stop-opacity="0"/>
    </linearGradient>
  </defs>
</svg>